<svg width="231" height="340" viewBox="0 0 231 340" fill="none" xmlns="http://www.w3.org/2000/svg">
<g filter="url(#filter0_i_7_43)">
<path d="M127.709 135.175L130.458 156.719C131.305 163.36 127.471 169.711 121.201 172.055V172.055C116.741 173.722 113.392 177.482 112.249 182.103L108.529 197.147C104.635 212.895 95.8777 227.015 83.5013 237.501L82.418 238.419C81.1624 239.483 80.1332 240.788 79.3914 242.257L78.2072 244.602C75.9002 249.171 81.7966 253.431 85.4096 249.806V249.806L91.8083 243.594C104.115 231.645 113.142 216.732 118.02 200.287L118.62 198.267L114.075 234.033V244.745C114.075 253.578 116.493 262.243 121.067 269.8V269.8V269.8C118.008 274.789 115.934 280.319 114.958 286.089L112.943 298.01C112.244 302.143 111.029 306.171 109.325 310L103.588 322.894L103.118 327.871C102.776 331.493 104.895 334.897 108.295 336.19V336.19C110.57 337.054 113.113 336.848 115.219 335.629L119.221 333.312C124.458 330.28 127.796 324.796 128.084 318.752L128.92 301.216C128.987 299.828 129.245 298.456 129.689 297.139L136.166 277.933C136.262 277.648 136.05 277.353 135.749 277.353V277.353V277.353C139.403 279.675 143.641 280.907 147.97 280.907H148.684L151.941 302.658C152.729 307.924 152.223 313.303 150.465 318.329L148.588 323.698C147.907 325.645 147.754 327.738 148.144 329.763V329.763C149.05 334.467 152.737 338.14 157.444 339.03L157.601 339.059C160.782 339.66 164.072 338.941 166.711 337.066L167.576 336.452C171.83 333.43 174.118 328.344 173.557 323.156L170.62 296.014L168.261 277.353V277.353C177.189 265.451 179.429 249.817 174.2 235.887L173.504 234.033L164.765 198.267L175.252 230.257L182.263 262.503C182.483 263.515 182.802 264.501 183.217 265.45V265.45C185.378 270.394 192.711 269.131 193.208 263.758V263.758C193.355 262.174 193.261 260.566 192.929 259.01L185.74 225.369L173.617 191.13C171.312 184.621 166.446 179.337 160.147 176.506V176.506C149.2 171.586 143.22 159.647 145.835 147.932L148.684 135.175H127.709Z" fill="url(#paint0_radial_7_43)"/>
</g>
<path d="M127.709 135.175L130.458 156.719C131.305 163.36 127.471 169.711 121.201 172.055V172.055C116.741 173.722 113.392 177.482 112.249 182.103L108.529 197.147C104.635 212.895 95.8777 227.015 83.5013 237.501L82.418 238.419C81.1624 239.483 80.1332 240.788 79.3914 242.257L78.2072 244.602C75.9002 249.171 81.7966 253.431 85.4096 249.806V249.806L91.8083 243.594C104.115 231.645 113.142 216.732 118.02 200.287L118.62 198.267L114.075 234.033V244.745C114.075 253.578 116.493 262.243 121.067 269.8V269.8V269.8C118.008 274.789 115.934 280.319 114.958 286.089L112.943 298.01C112.244 302.143 111.029 306.171 109.325 310L103.588 322.894L103.118 327.871C102.776 331.493 104.895 334.897 108.295 336.19V336.19C110.57 337.054 113.113 336.848 115.219 335.629L119.221 333.312C124.458 330.28 127.796 324.796 128.084 318.752L128.92 301.216C128.987 299.828 129.245 298.456 129.689 297.139L136.166 277.933C136.262 277.648 136.05 277.353 135.749 277.353V277.353V277.353C139.403 279.675 143.641 280.907 147.97 280.907H148.684L151.941 302.658C152.729 307.924 152.223 313.303 150.465 318.329L148.588 323.698C147.907 325.645 147.754 327.738 148.144 329.763V329.763C149.05 334.467 152.737 338.14 157.444 339.03L157.601 339.059C160.782 339.66 164.072 338.941 166.711 337.066L167.576 336.452C171.83 333.43 174.118 328.344 173.557 323.156L170.62 296.014L168.261 277.353V277.353C177.189 265.451 179.429 249.817 174.2 235.887L173.504 234.033L164.765 198.267L175.252 230.257L182.263 262.503C182.483 263.515 182.802 264.501 183.217 265.45V265.45C185.378 270.394 192.711 269.131 193.208 263.758V263.758C193.355 262.174 193.261 260.566 192.929 259.01L185.74 225.369L173.617 191.13C171.312 184.621 166.446 179.337 160.147 176.506V176.506C149.2 171.586 143.22 159.647 145.835 147.932L148.684 135.175H127.709Z" stroke="black"/>
<g filter="url(#filter1_i_7_43)">
<path d="M31.0295 116.801C33.0189 134.957 43.0412 151.265 58.3405 161.241L68.8852 168.117C88.2894 180.77 112.883 182.404 133.79 172.43L134.44 172.12C139.839 169.544 145.707 168.097 151.684 167.867L169.831 167.17C191.96 166.319 209.651 148.475 210.312 126.339V126.339C210.533 118.932 208.796 111.598 205.277 105.078L178.747 55.923C175.867 50.5878 172.167 45.7385 167.781 41.5527V41.5527C148.533 23.1813 119.234 20.3119 96.7864 34.5998L58.9044 58.7121C39.3077 71.1856 28.4994 93.7091 31.0295 116.801V116.801Z" fill="url(#paint1_radial_7_43)"/>
</g>
<path d="M97.0549 35.0216L59.1729 59.1339C39.7369 71.5051 29.0171 93.844 31.5265 116.746C33.4996 134.753 43.4398 150.928 58.6136 160.823L69.1583 167.698C88.4165 180.256 112.825 181.878 133.575 171.979L134.225 171.669C139.685 169.064 145.62 167.6 151.665 167.368L169.811 166.67C191.679 165.829 209.159 148.197 209.812 126.324C210.031 119.005 208.314 111.758 204.837 105.315L178.307 56.1604C175.452 50.8714 171.784 46.064 167.436 41.9144C148.354 23.7018 119.308 20.8572 97.0549 35.0216Z" stroke="black"/>
<path d="M89.7662 101.514C98.2271 97.4774 101.835 87.4065 97.8355 79.0239C93.8364 70.6413 83.7388 67.1088 75.278 71.1453C66.8171 75.1819 63.2095 85.2528 67.2087 93.6354C71.2078 102.018 81.3054 105.55 89.7662 101.514Z" fill="#353535" stroke="black"/>
<path d="M139.836 148.262C154.023 141.493 160.561 125.844 154.606 113.362C148.651 100.879 132.374 96.1144 118.186 102.883C113.516 105.111 108.31 110.706 105.029 117.361C101.749 124.016 100.462 131.589 103.416 137.783C109.371 150.265 125.649 155.03 139.836 148.262Z" fill="#353535" stroke="black"/>
<path d="M147.513 68.5408C151.396 66.6882 152.976 61.7537 150.937 57.4799C148.898 53.2061 144.069 51.3297 140.185 53.1824C136.302 55.035 134.722 59.9695 136.761 64.2433C138.8 68.5171 143.629 70.3935 147.513 68.5408Z" fill="#353535" stroke="black"/>
<defs>
<filter id="filter0_i_7_43" x="73.1824" y="134.675" width="120.593" height="209.091" filterUnits="userSpaceOnUse" color-interpolation-filters="sRGB">
<feFlood flood-opacity="0" result="BackgroundImageFix"/>
<feBlend mode="normal" in="SourceGraphic" in2="BackgroundImageFix" result="shape"/>
<feColorMatrix in="SourceAlpha" type="matrix" values="0 0 0 0 0 0 0 0 0 0 0 0 0 0 0 0 0 0 127 0" result="hardAlpha"/>
<feOffset dx="-4" dy="4"/>
<feGaussianBlur stdDeviation="2"/>
<feComposite in2="hardAlpha" operator="arithmetic" k2="-1" k3="1"/>
<feColorMatrix type="matrix" values="0 0 0 0 0 0 0 0 0 0 0 0 0 0 0 0 0 0 0.15 0"/>
<feBlend mode="normal" in2="shape" result="effect1_innerShadow_7_43"/>
</filter>
<filter id="filter1_i_7_43" x="30.6656" y="21.5527" width="181.665" height="157.353" filterUnits="userSpaceOnUse" color-interpolation-filters="sRGB">
<feFlood flood-opacity="0" result="BackgroundImageFix"/>
<feBlend mode="normal" in="SourceGraphic" in2="BackgroundImageFix" result="shape"/>
<feColorMatrix in="SourceAlpha" type="matrix" values="0 0 0 0 0 0 0 0 0 0 0 0 0 0 0 0 0 0 127 0" result="hardAlpha"/>
<feOffset dx="2" dy="-4"/>
<feGaussianBlur stdDeviation="2"/>
<feComposite in2="hardAlpha" operator="arithmetic" k2="-1" k3="1"/>
<feColorMatrix type="matrix" values="0 0 0 0 0 0 0 0 0 0 0 0 0 0 0 0 0 0 0.25 0"/>
<feBlend mode="normal" in2="shape" result="effect1_innerShadow_7_43"/>
</filter>
<radialGradient id="paint0_radial_7_43" cx="0" cy="0" r="1" gradientUnits="userSpaceOnUse" gradientTransform="translate(146.237 150.726) rotate(93.9918) scale(200.869 104.83)">
<stop stop-color="#DEDEDE"/>
<stop offset="0.271906" stop-color="white"/>
<stop offset="0.813802" stop-color="#FFF9F9"/>
<stop offset="0.967877" stop-color="#E0DFDF"/>
<stop offset="1" stop-color="#DADADA"/>
</radialGradient>
<radialGradient id="paint1_radial_7_43" cx="0" cy="0" r="1" gradientUnits="userSpaceOnUse" gradientTransform="translate(123.865 51) rotate(49.7036) scale(112.1 115.688)">
<stop offset="0.0231724" stop-color="#FFFAFA"/>
<stop offset="0.84375" stop-color="#FFF9F9"/>
<stop offset="0.968973" stop-color="#E8E8E8"/>
</radialGradient>
</defs>
</svg>
