<svg width="202" height="292" viewBox="0 0 202 292" fill="none" xmlns="http://www.w3.org/2000/svg">
<g filter="url(#filter0_i_13_76)">
<path d="M105.076 143L103.062 153.277C101.472 161.391 106.546 169.32 114.58 171.276V171.276C118.597 172.253 122.055 174.799 124.182 178.343L129.37 186.987C135.605 197.376 143.011 207.014 151.443 215.714L158.919 223.427C159.528 224.056 160.05 224.763 160.472 225.53V225.53C162.661 229.516 157.445 233.408 154.248 230.173L150.833 226.718L134.455 210.979L115.597 190.552L120.168 213.973C120.627 216.325 120.858 218.716 120.858 221.112V223.873C120.858 231.513 117.966 238.87 112.764 244.467V244.467L113.965 248.015C115.036 251.181 115.303 254.563 114.741 257.858V257.858C113.862 263.006 115.018 268.295 117.965 272.608L122.982 279.949L123.005 280.106C123.681 284.768 120.711 289.183 116.138 290.315V290.315C114.336 290.761 112.441 290.649 110.704 289.995L103.453 287.261C98.4529 285.376 95.1212 280.618 95.0604 275.275V275.275V250.868C95.0604 250.477 95.3775 250.159 95.7688 250.159V250.159V250.159C91.4942 251.928 86.9134 252.838 82.2873 252.838H80.7964L79.4892 260.05C78.7635 264.054 79.4165 268.185 81.3416 271.769L83.2822 275.383C84.2821 277.244 84.5066 279.425 83.9069 281.452V281.452C83.001 284.513 80.3655 286.745 77.197 287.135L71.5395 287.831C68.8616 288.16 66.145 287.735 63.6961 286.602V286.602C57.7822 283.867 54.4242 277.518 55.4922 271.091L57.7006 257.8C57.99 256.058 58.1355 254.295 58.1355 252.529V250.159V250.159C48.8855 242.131 47.6708 228.213 55.3902 218.704L60.2352 212.736L62.1821 190.552L50.0423 214.663L42.3187 237.794C41.8049 239.333 41.0861 240.796 40.1817 242.143L39.0083 243.891C36.3434 247.861 30.1867 246.451 29.5138 241.718V241.718C29.1758 239.34 29.3895 236.917 30.1383 234.636L35.4099 218.574C37.0682 213.521 39.1805 208.629 41.7209 203.957L51.4168 186.127C54.4223 180.599 59.5071 176.498 65.5452 174.731V174.731C78.4824 170.945 85.64 157.124 81.2674 144.373L80.7964 143H105.076Z" fill="url(#paint0_radial_13_76)"/>
</g>
<path d="M105.076 143L103.062 153.277C101.472 161.391 106.546 169.32 114.58 171.276V171.276C118.597 172.253 122.055 174.799 124.182 178.343L129.37 186.987C135.605 197.376 143.011 207.014 151.443 215.714L158.919 223.427C159.528 224.056 160.05 224.763 160.472 225.53V225.53C162.661 229.516 157.445 233.408 154.248 230.173L150.833 226.718L134.455 210.979L115.597 190.552L120.168 213.973C120.627 216.325 120.858 218.716 120.858 221.112V223.873C120.858 231.513 117.966 238.87 112.764 244.467V244.467L113.965 248.015C115.036 251.181 115.303 254.563 114.741 257.858V257.858C113.862 263.006 115.018 268.295 117.965 272.608L122.982 279.949L123.005 280.106C123.681 284.768 120.711 289.183 116.138 290.315V290.315C114.336 290.761 112.441 290.649 110.704 289.995L103.453 287.261C98.4529 285.376 95.1212 280.618 95.0604 275.275V275.275V250.868C95.0604 250.477 95.3775 250.159 95.7688 250.159V250.159V250.159C91.4942 251.928 86.9134 252.838 82.2873 252.838H80.7964L79.4892 260.05C78.7635 264.054 79.4165 268.185 81.3416 271.769L83.2822 275.383C84.2821 277.244 84.5066 279.425 83.9069 281.452V281.452C83.001 284.513 80.3655 286.745 77.197 287.135L71.5395 287.831C68.8616 288.16 66.145 287.735 63.6961 286.602V286.602C57.7822 283.867 54.4242 277.518 55.4922 271.091L57.7006 257.8C57.99 256.058 58.1355 254.295 58.1355 252.529V250.159V250.159C48.8855 242.131 47.6708 228.213 55.3902 218.704L60.2352 212.736L62.1821 190.552L50.0423 214.663L42.3187 237.794C41.8049 239.333 41.0861 240.796 40.1817 242.143L39.0083 243.891C36.3434 247.861 30.1867 246.451 29.5138 241.718V241.718C29.1758 239.34 29.3895 236.917 30.1383 234.636L35.4099 218.574C37.0682 213.521 39.1805 208.629 41.7209 203.957L51.4168 186.127C54.4223 180.599 59.5071 176.498 65.5452 174.731V174.731C78.4824 170.945 85.64 157.124 81.2674 144.373L80.7964 143H105.076Z" stroke="black"/>
<g filter="url(#filter1_i_13_76)">
<path d="M137.299 61.1637C155.834 74.2503 163.416 97.6806 155.784 118.286L150.386 132.861C146.316 143.848 139.533 153.618 130.63 161.315V161.315C105.959 182.644 67.1937 177.319 48.1818 149.991L42.0697 141.205C35.1134 131.206 30.3651 119.928 28.1392 108.118L23.466 83.3228C19.548 62.5354 35.01 43.5652 56.4419 42.8647L74.5086 42.2742C96.8214 41.545 118.936 48.1977 137.299 61.1637V61.1637Z" fill="url(#paint1_radial_13_76)"/>
</g>
<path d="M56.4721 43.3594L74.5388 42.769C96.7385 42.0434 118.741 48.6624 137.011 61.5627C155.358 74.5167 162.863 97.7096 155.309 118.106L149.911 132.681C145.869 143.593 139.132 153.296 130.29 160.94C105.845 182.074 67.4345 176.798 48.5966 149.719L42.4845 140.933C35.569 130.993 30.8485 119.781 28.6357 108.04L23.9625 83.2454C20.0999 62.752 35.3433 44.05 56.4721 43.3594Z" stroke="black"/>
<path d="M92.3501 90.7849C87.1245 91.4953 82.0464 89.7268 78.1166 86.6693C74.182 83.6081 71.4441 79.2907 70.8565 74.9681C69.6878 66.3704 77.1342 58.1093 87.7128 56.6713C98.2914 55.2333 107.673 61.2069 108.842 69.8046C109.429 74.1271 107.943 79.0187 104.968 83.0191C101.997 87.0147 97.5757 90.0746 92.3501 90.7849ZM119.266 131.538C113.943 132.262 110.582 131.506 108.396 129.6C106.194 127.68 105.061 124.491 104.456 120.041C104.037 116.956 105.381 113.501 107.614 110.691C109.848 107.879 112.887 105.818 115.717 105.434C121.075 104.705 124.866 105.001 127.456 106.49C130.008 107.958 131.508 110.657 132.105 115.054C132.703 119.453 132.078 123.206 130.053 126.028C128.033 128.843 124.556 130.819 119.266 131.538Z" fill="#353535" stroke="black"/>
<path d="M54.3184 143.997C50.6601 144.495 47.2707 141.883 46.7626 138.145C46.2544 134.407 48.8237 130.986 52.4821 130.488C56.1404 129.991 59.5298 132.602 60.0379 136.341C60.5461 140.079 57.9768 143.5 54.3184 143.997Z" fill="#353535" stroke="black"/>
<defs>
<filter id="filter0_i_13_76" x="24.858" y="142.5" width="136.64" height="152.584" filterUnits="userSpaceOnUse" color-interpolation-filters="sRGB">
<feFlood flood-opacity="0" result="BackgroundImageFix"/>
<feBlend mode="normal" in="SourceGraphic" in2="BackgroundImageFix" result="shape"/>
<feColorMatrix in="SourceAlpha" type="matrix" values="0 0 0 0 0 0 0 0 0 0 0 0 0 0 0 0 0 0 127 0" result="hardAlpha"/>
<feOffset dx="-4" dy="4"/>
<feGaussianBlur stdDeviation="2"/>
<feComposite in2="hardAlpha" operator="arithmetic" k2="-1" k3="1"/>
<feColorMatrix type="matrix" values="0 0 0 0 0 0 0 0 0 0 0 0 0 0 0 0 0 0 0.15 0"/>
<feBlend mode="normal" in2="shape" result="effect1_innerShadow_13_76"/>
</filter>
<filter id="filter1_i_13_76" x="18.8573" y="38.22" width="139.869" height="136.211" filterUnits="userSpaceOnUse" color-interpolation-filters="sRGB">
<feFlood flood-opacity="0" result="BackgroundImageFix"/>
<feBlend mode="normal" in="SourceGraphic" in2="BackgroundImageFix" result="shape"/>
<feColorMatrix in="SourceAlpha" type="matrix" values="0 0 0 0 0 0 0 0 0 0 0 0 0 0 0 0 0 0 127 0" result="hardAlpha"/>
<feOffset dx="-4" dy="-4"/>
<feGaussianBlur stdDeviation="2"/>
<feComposite in2="hardAlpha" operator="arithmetic" k2="-1" k3="1"/>
<feColorMatrix type="matrix" values="0 0 0 0 0 0 0 0 0 0 0 0 0 0 0 0 0 0 0.25 0"/>
<feBlend mode="normal" in2="shape" result="effect1_innerShadow_13_76"/>
</filter>
<radialGradient id="paint0_radial_13_76" cx="0" cy="0" r="1" gradientUnits="userSpaceOnUse" gradientTransform="translate(92.5315 154.884) rotate(83.8827) scale(151.893 120.949)">
<stop stop-color="#DEDEDE"/>
<stop offset="0.2237" stop-color="white"/>
<stop offset="0.813802" stop-color="white"/>
<stop offset="0.967877" stop-color="#E0DFDF"/>
<stop offset="1" stop-color="#DADADA"/>
</radialGradient>
<radialGradient id="paint1_radial_13_76" cx="0" cy="0" r="1" gradientUnits="userSpaceOnUse" gradientTransform="translate(126.034 78.1419) rotate(145.468) scale(123.618 119.285)">
<stop stop-color="#DEDEDE"/>
<stop stop-color="white"/>
<stop offset="0.772866" stop-color="white"/>
<stop offset="0.967877" stop-color="#E0DFDF"/>
<stop offset="1" stop-color="#DADADA"/>
</radialGradient>
</defs>
</svg>
