<svg width="234" height="355" viewBox="0 0 234 355" fill="none" xmlns="http://www.w3.org/2000/svg">
<g filter="url(#filter0_i_7_41)">
<path d="M135.554 209.691C149.36 213.163 160.515 223.31 165.274 236.727V236.727C167.484 242.958 169.206 249.351 170.426 255.848L172.133 264.945C173.221 270.742 168.03 275.764 162.272 274.484L139.153 269.346L141.437 256.279L159.711 259.784L151.589 236.418L153.594 258.611L141.437 256.279L139.153 269.346L153.594 272.556V276.141L156.906 281.547C163.456 292.241 159.69 306.242 148.658 312.206V312.206H91.8065V312.206C82.4725 305.188 79.2885 292.616 84.157 282.001L86.8449 276.141L104.636 271.437L103.113 258.37L88.9003 260.865L91.8065 236.418L80.7786 262.29L103.113 258.37L104.636 271.437L86.8449 276.141L77.4397 278.25C70.5823 279.787 64.5427 273.495 66.3596 266.706L75.6333 232.056C78.4219 221.637 86.4984 213.461 96.8825 210.545V210.545L107.034 208.454L109.573 192.774H125.816L130.638 208.454L135.554 209.691Z" fill="url(#paint0_radial_7_41)"/>
</g>
<path d="M139.153 269.346L141.437 256.279M139.153 269.346L162.272 274.484C168.03 275.764 173.221 270.742 172.133 264.945L170.426 255.848C169.206 249.351 167.484 242.958 165.274 236.727V236.727C160.515 223.31 149.36 213.163 135.554 209.691L130.638 208.454L125.816 192.774H109.573L107.034 208.454L96.8825 210.545V210.545C86.4984 213.461 78.4219 221.637 75.6333 232.056L66.3596 266.706C64.5427 273.495 70.5823 279.787 77.4397 278.25L86.8449 276.141M139.153 269.346L153.594 272.556V276.141L156.906 281.547C163.456 292.241 159.69 306.242 148.658 312.206V312.206H91.8065V312.206C82.4725 305.188 79.2885 292.616 84.157 282.001L86.8449 276.141M103.113 258.37L80.7786 262.29L91.8065 236.418L88.9003 260.865L103.113 258.37ZM103.113 258.37L104.636 271.437L86.8449 276.141M141.437 256.279L159.711 259.784L151.589 236.418L153.594 258.611L141.437 256.279Z" stroke="black"/>
<g filter="url(#filter1_i_7_41)">
<path d="M90.6394 258.885C90.6394 253.356 91.5105 247.861 93.2209 242.602L93.3761 242.125C97.1447 230.539 113.359 230.059 117.806 241.403L118.122 242.21C120.279 247.714 121.387 253.574 121.387 259.486V259.486V300.304V318.881C121.387 323.597 120.454 328.267 118.643 332.622L118.502 332.961C116.176 338.551 112.416 343.43 107.602 347.103L103.237 350.433C101.308 351.904 99.0265 352.844 96.6209 353.157L94.828 353.391C89.6243 354.069 84.6197 351.146 82.6547 346.28V346.28C81.1712 342.606 81.6789 338.429 83.9988 335.217L86.8107 331.325C89.2997 327.88 90.6394 323.738 90.6394 319.488V298.627V259.486V258.885Z" fill="url(#paint1_radial_7_41)"/>
</g>
<path d="M93.6963 242.757L93.8516 242.28C97.4751 231.14 113.065 230.679 117.34 241.585L117.656 242.392C119.791 247.838 120.887 253.636 120.887 259.486V300.304V318.881C120.887 323.531 119.967 328.136 118.181 332.43L118.04 332.768C115.748 338.278 112.043 343.086 107.298 346.705L102.933 350.035C101.074 351.454 98.8751 352.359 96.5562 352.662L94.7634 352.895C89.7855 353.544 84.998 350.747 83.1183 346.092C81.6992 342.579 82.1848 338.582 84.4041 335.51L87.216 331.618C89.7665 328.088 91.1394 323.843 91.1394 319.488V298.627V259.486V258.885C91.1394 253.408 92.0023 247.965 93.6963 242.757Z" stroke="black"/>
<g filter="url(#filter2_i_7_41)">
<path d="M152.134 258.885C152.134 253.356 151.263 247.861 149.553 242.602L149.397 242.125C145.629 230.539 129.414 230.059 124.968 241.403L124.652 242.21C122.494 247.714 121.387 253.574 121.387 259.486V259.486V300.304V318.881C121.387 323.597 122.319 328.267 124.131 332.622L124.272 332.961C126.597 338.551 130.357 343.43 135.172 347.103L139.537 350.433C141.466 351.904 143.747 352.844 146.153 353.157L147.945 353.391C153.149 354.069 158.154 351.146 160.119 346.28V346.28C161.602 342.606 161.095 338.429 158.775 335.217L155.963 331.325C153.474 327.88 152.134 323.738 152.134 319.488V298.627V259.486V258.885Z" fill="url(#paint2_radial_7_41)"/>
</g>
<path d="M149.077 242.757L148.922 242.28C145.298 231.14 129.709 230.679 125.433 241.585L125.117 242.392C122.982 247.838 121.887 253.636 121.887 259.486V300.304V318.881C121.887 323.531 122.806 328.136 124.593 332.43L124.733 332.769C127.025 338.278 130.731 343.086 135.475 346.705L139.84 350.035C141.699 351.454 143.898 352.359 146.217 352.662L148.01 352.895C152.988 353.544 157.775 350.747 159.655 346.093C161.074 342.579 160.589 338.582 158.369 335.51L155.558 331.618C153.007 328.088 151.634 323.843 151.634 319.488V298.627V259.486V258.885C151.634 253.408 150.771 247.965 149.077 242.757Z" stroke="black"/>
<g filter="url(#filter3_i_7_41)">
<path d="M197.811 148.213C193.621 158.357 187.146 167.325 178.904 174.395L158.077 192.263C146.393 202.286 131.724 208.016 116.378 208.55L107.611 208.855C99.9983 209.12 92.405 207.585 85.4234 204.37L64.9797 194.955C48.6187 187.421 36.6511 172.424 32.7579 154.578V154.578C30.0099 141.982 30.2059 128.941 33.3297 116.516L38.0023 97.932C40.7237 87.1081 45.9359 77.1342 53.2087 68.8331L63.8636 56.6719C70.0228 49.6419 77.5224 43.969 85.9151 39.9916L86.9087 39.5207C109.878 28.6352 137.013 31.5673 157.58 47.157L175.766 60.9426C201.698 80.5988 211.244 115.686 198.836 145.731L197.811 148.213Z" fill="url(#paint3_radial_7_41)"/>
</g>
<path d="M157.288 47.5612L175.475 61.3467C201.221 80.8626 210.699 115.7 198.38 145.53L197.355 148.011C193.195 158.083 186.765 166.987 178.583 174.007L157.756 191.874C146.155 201.826 131.591 207.515 116.355 208.045L107.588 208.35C100.051 208.612 92.5336 207.092 85.6218 203.91L65.1781 194.495C48.9616 187.027 37.0996 172.163 33.2408 154.474C30.5098 141.956 30.7045 128.995 33.8091 116.648L38.4817 98.0637C41.1837 87.3171 46.3586 77.4145 53.5795 69.1727L64.2343 57.0115C70.3496 50.0316 77.7956 44.3993 86.1283 40.4503L87.122 39.9794C109.927 29.1717 136.868 32.0828 157.288 47.5612Z" stroke="black"/>
<path d="M137.254 135.534C123.991 128.094 118.978 111.224 126.051 97.857C133.123 84.4896 149.606 79.6786 162.869 87.1186C176.132 94.5586 181.144 111.428 174.072 124.795C167 138.163 150.517 142.974 137.254 135.534Z" fill="#353535" stroke="black"/>
<path d="M80.9291 175.964C72.0631 170.99 68.8477 159.386 73.7983 150.028C78.7489 140.671 89.9616 137.16 98.8275 142.134C107.694 147.107 110.909 158.712 105.958 168.069C101.008 177.426 89.7951 180.937 80.9291 175.964Z" fill="#353535" stroke="black"/>
<path d="M78.0572 105.431C74.6219 103.504 73.5414 98.3733 75.9219 93.8738C78.3025 89.3743 83.0748 87.5269 86.5101 89.4541C89.9455 91.3812 91.026 96.5118 88.6454 101.011C86.2649 105.511 81.4926 107.358 78.0572 105.431Z" fill="#353535" stroke="black"/>
<defs>
<filter id="filter0_i_7_41" x="61.5322" y="188.274" width="111.247" height="124.432" filterUnits="userSpaceOnUse" colorInterpolationFilters="sRGB">
<feFlood floodOpacity="0" result="BackgroundImageFix"/>
<feBlend mode="normal" in="SourceGraphic" in2="BackgroundImageFix" result="shape"/>
<feColorMatrix in="SourceAlpha" type="matrix" values="0 0 0 0 0 0 0 0 0 0 0 0 0 0 0 0 0 0 127 0" result="hardAlpha"/>
<feOffset dx="-4" dy="-4"/>
<feGaussianBlur stdDeviation="2"/>
<feComposite in2="hardAlpha" operator="arithmetic" k2="-1" k3="1"/>
<feColorMatrix type="matrix" values="0 0 0 0 0 0 0 0 0 0 0 0 0 0 0 0 0 0 0.25 0"/>
<feBlend mode="normal" in2="shape" result="effect1_innerShadow_7_41"/>
</filter>
<filter id="filter1_i_7_41" x="77.8163" y="229.159" width="43.5705" height="124.329" filterUnits="userSpaceOnUse" colorInterpolationFilters="sRGB">
<feFlood floodOpacity="0" result="BackgroundImageFix"/>
<feBlend mode="normal" in="SourceGraphic" in2="BackgroundImageFix" result="shape"/>
<feColorMatrix in="SourceAlpha" type="matrix" values="0 0 0 0 0 0 0 0 0 0 0 0 0 0 0 0 0 0 127 0" result="hardAlpha"/>
<feOffset dx="-4" dy="-4"/>
<feGaussianBlur stdDeviation="2"/>
<feComposite in2="hardAlpha" operator="arithmetic" k2="-1" k3="1"/>
<feColorMatrix type="matrix" values="0 0 0 0 0 0 0 0 0 0 0 0 0 0 0 0 0 0 0.25 0"/>
<feBlend mode="normal" in2="shape" result="effect1_innerShadow_7_41"/>
</filter>
<filter id="filter2_i_7_41" x="117.387" y="229.159" width="43.5705" height="124.329" filterUnits="userSpaceOnUse" colorInterpolationFilters="sRGB">
<feFlood floodOpacity="0" result="BackgroundImageFix"/>
<feBlend mode="normal" in="SourceGraphic" in2="BackgroundImageFix" result="shape"/>
<feColorMatrix in="SourceAlpha" type="matrix" values="0 0 0 0 0 0 0 0 0 0 0 0 0 0 0 0 0 0 127 0" result="hardAlpha"/>
<feOffset dx="-4" dy="-4"/>
<feGaussianBlur stdDeviation="2"/>
<feComposite in2="hardAlpha" operator="arithmetic" k2="-1" k3="1"/>
<feColorMatrix type="matrix" values="0 0 0 0 0 0 0 0 0 0 0 0 0 0 0 0 0 0 0.25 0"/>
<feBlend mode="normal" in2="shape" result="effect1_innerShadow_7_41"/>
</filter>
<filter id="filter3_i_7_41" x="30.8325" y="29.0164" width="175.396" height="179.868" filterUnits="userSpaceOnUse" colorInterpolationFilters="sRGB">
<feFlood floodOpacity="0" result="BackgroundImageFix"/>
<feBlend mode="normal" in="SourceGraphic" in2="BackgroundImageFix" result="shape"/>
<feColorMatrix in="SourceAlpha" type="matrix" values="0 0 0 0 0 0 0 0 0 0 0 0 0 0 0 0 0 0 127 0" result="hardAlpha"/>
<feOffset dx="2" dy="-4"/>
<feGaussianBlur stdDeviation="2"/>
<feComposite in2="hardAlpha" operator="arithmetic" k2="-1" k3="1"/>
<feColorMatrix type="matrix" values="0 0 0 0 0 0 0 0 0 0 0 0 0 0 0 0 0 0 0.25 0"/>
<feBlend mode="normal" in2="shape" result="effect1_innerShadow_7_41"/>
</filter>
<radialGradient id="paint0_radial_7_41" cx="0" cy="0" r="1" gradientUnits="userSpaceOnUse" gradientTransform="translate(118.341 216.556) rotate(87.0042) scale(107.831 244.012)">
<stop stopColor="#DEDEDE"/>
<stop offset="0.2237" stopColor="white"/>
<stop offset="0.813802" stopColor="white"/>
<stop offset="0.967877" stopColor="#E0DFDF"/>
<stop offset="1" stopColor="#DADADA"/>
</radialGradient>
<radialGradient id="paint1_radial_7_41" cx="0" cy="0" r="1" gradientUnits="userSpaceOnUse" gradientTransform="translate(98.2858 219.464) rotate(88.246) scale(149.947 34.4761)">
<stop stopColor="#DEDEDE"/>
<stop offset="0.2237" stopColor="white"/>
<stop offset="0.813802" stopColor="white"/>
<stop offset="0.967877" stopColor="#E0DFDF"/>
<stop offset="1" stopColor="#DADADA"/>
</radialGradient>
<radialGradient id="paint2_radial_7_41" cx="0" cy="0" r="1" gradientUnits="userSpaceOnUse" gradientTransform="translate(144.488 219.464) rotate(91.754) scale(149.947 34.4761)">
<stop stopColor="#DEDEDE"/>
<stop offset="0.2237" stopColor="white"/>
<stop offset="0.813802" stopColor="white"/>
<stop offset="0.967877" stopColor="#E0DFDF"/>
<stop offset="1" stopColor="#DADADA"/>
</radialGradient>
<radialGradient id="paint3_radial_7_41" cx="0" cy="0" r="1" gradientUnits="userSpaceOnUse" gradientTransform="translate(104.846 102.327) rotate(66.8343) scale(106.161 109.716)">
<stop offset="0.0231724" stopColor="#FFFAFA"/>
<stop offset="0.84375" stopColor="#FFF9F9"/>
<stop offset="0.968973" stopColor="#E8E8E8"/>
</radialGradient>
</defs>
</svg>
  